<svg xmlns="http://www.w3.org/2000/svg" version="1.1" xmlns:xlink="http://www.w3.org/1999/xlink" width="1000" height="1000"><g clip-path="url(#SvgjsClipPath1005)"><rect width="1000" height="1000" fill="#ffffff"></rect><g transform="matrix(0.4557291666666667,0,0,0.4557291666666667,150,266.66666666666663)"><svg xmlns="http://www.w3.org/2000/svg" version="1.1" xmlns:xlink="http://www.w3.org/1999/xlink" width="1536.000000pt" height="1024.000000pt"><svg version="1.0" xmlns="http://www.w3.org/2000/svg" width="1536.000000pt" height="1024.000000pt" viewBox="0 0 1536.000000 1024.000000" preserveAspectRatio="xMidYMid meet">

<g transform="translate(0.000000,1024.000000) scale(0.100000,-0.100000)" fill="#000000" stroke="none">
<path d="M9415 7165 c-11 -3 -171 -23 -355 -45 -1519 -183 -2340 -281 -2720
-325 -545 -64 -553 -65 -606 -89 -29 -13 -71 -44 -95 -68 -60 -61 -82 -117
-84 -208 l-2 -75 -79 -44 c-190 -105 -387 -264 -499 -404 -80 -101 -149 -231
-175 -333 -72 -280 61 -587 331 -766 62 -41 231 -128 249 -128 6 0 -9 24 -35
53 -53 59 -117 186 -136 267 -55 239 50 499 296 728 85 80 115 100 115 80 0
-7 27 -226 59 -488 33 -261 65 -520 71 -575 6 -55 13 -116 16 -136 l5 -36 82
-12 c45 -6 104 -11 130 -11 l48 0 -6 33 c-3 17 -25 192 -50 387 -24 195 -76
605 -115 910 -66 517 -70 557 -56 587 8 18 26 39 38 47 15 9 179 34 468 70
245 31 609 76 810 101 201 25 619 77 930 115 311 38 615 76 675 84 385 53 785
96 807 87 45 -17 76 -66 83 -128 3 -32 26 -214 51 -405 24 -191 64 -508 89
-705 25 -197 48 -375 51 -396 l6 -37 24 19 c14 11 54 47 90 81 l65 61 -25 207
c-166 1336 -162 1314 -241 1401 -57 62 -127 94 -215 97 -41 1 -84 1 -95 -1z"></path>
<path d="M9070 6593 c-80 -91 -189 -215 -244 -275 l-98 -110 -47 44 c-25 24
-83 77 -128 116 l-81 73 -44 -48 c-25 -26 -63 -68 -85 -93 l-41 -45 62 -54
c33 -29 134 -120 223 -202 l161 -148 194 216 c106 119 255 287 331 372 l137
155 -87 83 c-49 45 -92 82 -98 82 -5 0 -75 -75 -155 -166z"></path>
<path d="M9890 6688 c0 -2 16 -128 35 -281 19 -153 35 -290 35 -304 0 -18 18
-45 59 -87 89 -94 131 -193 131 -315 l0 -65 46 64 c168 230 207 450 115 645
-56 119 -163 221 -311 299 -61 32 -110 51 -110 44z"></path>
<path d="M7000 4948 c0 -4 12 -33 26 -65 76 -169 152 -343 150 -343 -2 0 -58
-11 -125 -25 -661 -134 -1282 -136 -1681 -4 -263 87 -457 225 -552 393 l-29
51 6 -45 c28 -195 120 -365 282 -521 186 -179 410 -294 728 -374 243 -61 332
-70 700 -70 253 1 360 5 457 18 119 16 366 59 414 73 18 5 25 -4 53 -66 18
-40 31 -74 29 -75 -3 -4 -136 -19 -728 -86 -195 -22 -384 -44 -420 -49 -98
-14 -151 6 -176 67 -13 29 -19 33 -54 33 -22 0 -76 7 -120 16 -45 9 -83 14
-86 11 -12 -11 18 -164 42 -216 33 -72 108 -144 180 -171 76 -28 129 -26 547
20 199 21 479 51 622 65 143 14 274 28 292 31 27 4 42 19 90 87 213 304 683
919 831 1087 17 21 32 40 32 44 0 3 -37 6 -82 6 -255 0 -857 48 -1365 109 -35
4 -63 4 -63 -1z"></path>
<path d="M10029 4647 c-31 -23 -73 -51 -93 -62 -23 -12 -34 -25 -32 -35 3 -8
12 -81 22 -161 l17 -147 -22 -35 c-23 -38 -73 -67 -116 -67 -30 0 -959 -111
-1384 -165 -151 -19 -285 -35 -298 -35 -15 0 -51 -24 -96 -62 -39 -34 -126
-102 -192 -151 -66 -49 -122 -92 -125 -94 -3 -3 18 -3 45 1 77 9 552 60 1175
126 1100 117 1047 108 1138 204 58 61 87 130 87 206 0 59 -52 474 -63 502 -6
15 -15 11 -63 -25z"></path>
</g>
</svg></svg></g></g><defs><clipPath id="SvgjsClipPath1005"><rect width="1000" height="1000" x="0" y="0" rx="350" ry="350"></rect></clipPath></defs></svg>